<mxfile host="app.diagrams.net" modified="2020-04-03T03:05:21.134Z" agent="5.0 (Windows NT 10.0; Win64; x64) AppleWebKit/537.36 (KHTML, like Gecko) Chrome/80.0.3987.162 Safari/537.36" etag="-StHceCQizFjNz5DGTc-" version="12.9.6" type="github">
  <diagram id="eRg1pmTxgLJWcELetR_X" name="Page-1">
    <mxGraphModel dx="2414" dy="874" grid="1" gridSize="10" guides="1" tooltips="1" connect="1" arrows="1" fold="1" page="1" pageScale="1" pageWidth="850" pageHeight="1100" math="0" shadow="0">
      <root>
        <mxCell id="0" />
        <mxCell id="1" parent="0" />
        <mxCell id="n-cgSmpmp9QMJwqrRKeW-1" value="Admin" style="shape=umlActor;verticalLabelPosition=bottom;labelBackgroundColor=#ffffff;verticalAlign=top;html=1;outlineConnect=0;" vertex="1" parent="1">
          <mxGeometry x="-820" y="190" width="30" height="60" as="geometry" />
        </mxCell>
        <mxCell id="n-cgSmpmp9QMJwqrRKeW-3" value="Upload File" style="ellipse;whiteSpace=wrap;html=1;" vertex="1" parent="1">
          <mxGeometry x="-690" y="110" width="120" height="40" as="geometry" />
        </mxCell>
        <mxCell id="n-cgSmpmp9QMJwqrRKeW-24" value="Store Warehouse Data" style="ellipse;whiteSpace=wrap;html=1;" vertex="1" parent="1">
          <mxGeometry x="-450" y="100" width="120" height="40" as="geometry" />
        </mxCell>
        <mxCell id="n-cgSmpmp9QMJwqrRKeW-5" value="Update Data on System" style="ellipse;whiteSpace=wrap;html=1;" vertex="1" parent="1">
          <mxGeometry x="-690" y="170" width="120" height="40" as="geometry" />
        </mxCell>
        <mxCell id="n-cgSmpmp9QMJwqrRKeW-6" value="Save Data" style="ellipse;whiteSpace=wrap;html=1;" vertex="1" parent="1">
          <mxGeometry x="-690" y="240" width="120" height="40" as="geometry" />
        </mxCell>
        <mxCell id="n-cgSmpmp9QMJwqrRKeW-7" value="Re-upload Data" style="ellipse;whiteSpace=wrap;html=1;" vertex="1" parent="1">
          <mxGeometry x="-450" y="240" width="120" height="40" as="geometry" />
        </mxCell>
        <mxCell id="n-cgSmpmp9QMJwqrRKeW-8" value="" style="ellipse;whiteSpace=wrap;html=1;" vertex="1" parent="1">
          <mxGeometry x="-690" y="360" width="120" height="40" as="geometry" />
        </mxCell>
        <mxCell id="n-cgSmpmp9QMJwqrRKeW-10" value="" style="rounded=0;whiteSpace=wrap;html=1;fillColor=none;" vertex="1" parent="1">
          <mxGeometry x="-730" y="470" width="850" height="430" as="geometry" />
        </mxCell>
        <mxCell id="n-cgSmpmp9QMJwqrRKeW-11" value="Warehouse Management System&amp;nbsp;" style="text;html=1;strokeColor=none;fillColor=none;align=center;verticalAlign=middle;whiteSpace=wrap;rounded=0;fontStyle=1;fontSize=18;" vertex="1" parent="1">
          <mxGeometry x="-509" y="30" width="310" height="20" as="geometry" />
        </mxCell>
        <mxCell id="n-cgSmpmp9QMJwqrRKeW-26" value="" style="endArrow=none;dashed=1;html=1;fontSize=12;entryX=0;entryY=0.5;entryDx=0;entryDy=0;" edge="1" parent="1" target="n-cgSmpmp9QMJwqrRKeW-24">
          <mxGeometry width="50" height="50" relative="1" as="geometry">
            <mxPoint x="-570" y="120" as="sourcePoint" />
            <mxPoint x="-520" y="60" as="targetPoint" />
          </mxGeometry>
        </mxCell>
        <mxCell id="n-cgSmpmp9QMJwqrRKeW-27" value="&amp;lt;&amp;lt;include&amp;gt;&amp;gt;" style="text;html=1;strokeColor=none;fillColor=none;align=center;verticalAlign=middle;whiteSpace=wrap;rounded=0;fontSize=12;" vertex="1" parent="1">
          <mxGeometry x="-520" y="90" width="40" height="20" as="geometry" />
        </mxCell>
        <mxCell id="n-cgSmpmp9QMJwqrRKeW-29" value="" style="endArrow=none;dashed=1;html=1;fontSize=12;entryX=0;entryY=0.5;entryDx=0;entryDy=0;" edge="1" parent="1" target="n-cgSmpmp9QMJwqrRKeW-7">
          <mxGeometry width="50" height="50" relative="1" as="geometry">
            <mxPoint x="-570" y="260" as="sourcePoint" />
            <mxPoint x="-520" y="210" as="targetPoint" />
          </mxGeometry>
        </mxCell>
        <mxCell id="n-cgSmpmp9QMJwqrRKeW-34" value="Login/Logout to GUI" style="ellipse;whiteSpace=wrap;html=1;" vertex="1" parent="1">
          <mxGeometry x="-690" y="50" width="120" height="40" as="geometry" />
        </mxCell>
      </root>
    </mxGraphModel>
  </diagram>
</mxfile>
